<svg width="138" height="29" viewBox="0 0 138 29" fill="none" xmlns="http://www.w3.org/2000/svg">
<path d="M8.21094 23C11.1289 23 12.9102 21.5352 12.9102 19.1797C12.9102 17.457 11.6211 16.1445 9.80469 16.0039V15.8398C11.1875 15.6289 12.2422 14.3867 12.2422 12.9805C12.2422 10.918 10.6836 9.64062 8.07031 9.64062H2.31641V23H8.21094ZM4.85938 11.6914H7.44922C8.89062 11.6914 9.72266 12.3477 9.72266 13.4492C9.72266 14.5742 8.83203 15.207 7.15625 15.207H4.85938V11.6914ZM4.85938 20.9492V17.0352H7.51953C9.33594 17.0352 10.3086 17.7031 10.3086 18.9688C10.3086 20.2578 9.37109 20.9492 7.61328 20.9492H4.85938ZM28.8477 9.30078C24.875 9.30078 22.3555 11.9961 22.3555 16.3203C22.3555 20.6445 24.8281 23.3398 28.8477 23.3398C32.8203 23.3398 35.293 20.6445 35.293 16.3203C35.293 11.9961 32.8203 9.30078 28.8477 9.30078ZM28.8477 11.6328C31.2031 11.6328 32.7031 13.4492 32.7031 16.3203C32.7031 19.1797 31.2148 21.0195 28.8477 21.0195C26.4336 21.0195 24.957 19.1797 24.957 16.3203C24.957 13.4492 26.4688 11.6328 28.8477 11.6328ZM48.0664 9.64062H45.5234V18.3945C45.5234 21.3359 47.6914 23.3398 51.1484 23.3398C54.6055 23.3398 56.7734 21.3359 56.7734 18.3945V9.64062H54.2305V18.1367C54.2305 19.8594 53.1172 20.9844 51.1484 20.9844C49.1797 20.9844 48.0664 19.8594 48.0664 18.1367V9.64062ZM70.0156 23V14.3633H70.1797L76.7539 23H78.9219V9.64062H76.4844V18.2422H76.3203L69.7578 9.64062H67.5664V23H70.0156ZM89.6914 9.64062V23H94.8711C98.9375 23 101.27 20.5625 101.27 16.2383C101.27 12.0547 98.9141 9.64062 94.8711 9.64062H89.6914ZM92.2344 11.9023H94.5078C97.1328 11.9023 98.668 13.4961 98.668 16.2852C98.668 19.168 97.168 20.7383 94.5078 20.7383H92.2344V11.9023Z" fill="black"/>
<circle cx="122.5" cy="10.5" r="7.5" fill="#398557"/>
<circle cx="130.5" cy="19.5" r="7.5" fill="#DA304C"/>
</svg>
