<svg width="591" height="39" viewBox="0 0 591 39" fill="none" xmlns="http://www.w3.org/2000/svg">
<line opacity="0.4" x1="-3.53528e-08" y1="37.7597" x2="591" y2="37.7596" stroke="#1D1F20"/>
<line opacity="0.4" x1="-4.37114e-08" y1="0.666687" x2="591" y2="0.666635" stroke="#1D1F20"/>
<rect x="1" y="1.16669" width="589" height="35.8566" fill="#EAEEF4"/>
<path opacity="0.4" d="M32.8135 21.6849C32.8613 22.847 33.9551 23.7288 35.5957 23.7288C37.3525 23.7288 38.5557 22.6898 38.5557 21.1038C38.5557 19.5589 37.3867 18.6907 36.0264 18.6907C35.1377 18.6907 34.5977 19.0872 34.4336 19.3265H34.3652L34.5361 17.3509H38.1182V16.1683H33.3057L32.9775 20.4954H34.3174C34.4883 20.2015 34.9121 19.8118 35.623 19.8118C36.4092 19.8118 37.0654 20.3314 37.0654 21.1448C37.0654 22.0472 36.375 22.5667 35.623 22.5667C34.9668 22.5667 34.3447 22.2728 34.2217 21.6849H32.8135Z" fill="#1D1F20"/>
<path opacity="0.4" d="M66.1836 23.5853V16.1751H64.6592C64.1875 16.4485 63.2236 17.0775 62.793 17.4124V18.8206C63.3125 18.4241 64.208 17.8089 64.5977 17.5833H64.6592V23.5853H66.1836ZM69.9707 19.723C69.9707 18.1028 70.5449 17.2278 71.4199 17.2278C72.3018 17.2278 72.8828 18.1097 72.8828 19.723V20.0374C72.8828 21.6507 72.3018 22.5325 71.4199 22.5325C70.5449 22.5325 69.9707 21.6575 69.9707 20.0374V19.723ZM68.4326 20.0443C68.4326 22.2318 69.499 23.7288 71.4131 23.7288C73.3818 23.7288 74.4141 22.1497 74.4141 20.0443V19.7161C74.4141 17.515 73.3545 16.0316 71.4336 16.0316C69.5332 16.0316 68.4326 17.5218 68.4326 19.7161V20.0443Z" fill="#1D1F20"/>
<path opacity="0.4" d="M99.2373 23.5853V16.1751H97.7129C97.2412 16.4485 96.2773 17.0775 95.8467 17.4124V18.8206C96.3662 18.4241 97.2617 17.8089 97.6514 17.5833H97.7129V23.5853H99.2373ZM101.582 21.6849C101.63 22.847 102.724 23.7288 104.364 23.7288C106.121 23.7288 107.324 22.6898 107.324 21.1038C107.324 19.5589 106.155 18.6907 104.795 18.6907C103.906 18.6907 103.366 19.0872 103.202 19.3265H103.134L103.305 17.3509H106.887V16.1683H102.074L101.746 20.4954H103.086C103.257 20.2015 103.681 19.8118 104.392 19.8118C105.178 19.8118 105.834 20.3314 105.834 21.1448C105.834 22.0472 105.144 22.5667 104.392 22.5667C103.735 22.5667 103.113 22.2728 102.99 21.6849H101.582Z" fill="#1D1F20"/>
<path opacity="0.4" d="M128.558 18.39C128.558 18.3694 128.551 18.3284 128.551 18.3079C128.551 17.7269 128.995 17.2073 129.754 17.2073C130.438 17.2073 130.943 17.6312 130.943 18.2464C130.943 18.8548 130.485 19.3333 130.062 19.7503L127.163 22.6761V23.5853H132.604V22.3958H129.282V22.3275L131.087 20.4612C131.777 19.7571 132.468 19.1214 132.468 18.1097C132.468 16.9271 131.415 16.0316 129.788 16.0316C127.97 16.0316 127.095 17.18 127.095 18.3148V18.39H128.558ZM135.489 19.723C135.489 18.1028 136.063 17.2278 136.938 17.2278C137.82 17.2278 138.401 18.1097 138.401 19.723V20.0374C138.401 21.6507 137.82 22.5325 136.938 22.5325C136.063 22.5325 135.489 21.6575 135.489 20.0374V19.723ZM133.951 20.0443C133.951 22.2318 135.018 23.7288 136.932 23.7288C138.9 23.7288 139.933 22.1497 139.933 20.0443V19.7161C139.933 17.515 138.873 16.0316 136.952 16.0316C135.052 16.0316 133.951 17.5218 133.951 19.7161V20.0443Z" fill="#1D1F20"/>
<path opacity="0.4" d="M161.681 18.39C161.681 18.3694 161.674 18.3284 161.674 18.3079C161.674 17.7269 162.118 17.2073 162.877 17.2073C163.561 17.2073 164.066 17.6312 164.066 18.2464C164.066 18.8548 163.608 19.3333 163.185 19.7503L160.286 22.6761V23.5853H165.728V22.3958H162.405V22.3275L164.21 20.4612C164.9 19.7571 165.591 19.1214 165.591 18.1097C165.591 16.9271 164.538 16.0316 162.911 16.0316C161.093 16.0316 160.218 17.18 160.218 18.3148V18.39H161.681ZM167.17 21.6849C167.218 22.847 168.312 23.7288 169.952 23.7288C171.709 23.7288 172.912 22.6898 172.912 21.1038C172.912 19.5589 171.743 18.6907 170.383 18.6907C169.494 18.6907 168.954 19.0872 168.79 19.3265H168.722L168.893 17.3509H172.475V16.1683H167.662L167.334 20.4954H168.674C168.845 20.2015 169.269 19.8118 169.979 19.8118C170.766 19.8118 171.422 20.3314 171.422 21.1448C171.422 22.0472 170.731 22.5667 169.979 22.5667C169.323 22.5667 168.701 22.2728 168.578 21.6849H167.17Z" fill="#1D1F20"/>
<path opacity="0.4" d="M194.824 20.3314H195.706C196.561 20.3314 197.101 20.803 197.114 21.4456C197.114 22.1155 196.547 22.5872 195.672 22.5804C194.872 22.5804 194.298 22.1839 194.25 21.6507H192.842C192.876 22.7786 193.881 23.7288 195.658 23.7288C197.292 23.7288 198.652 22.9153 198.639 21.5071C198.625 20.3314 197.654 19.805 196.937 19.7435V19.6683C197.518 19.5794 198.42 19.012 198.399 17.9593C198.379 16.8519 197.347 16.0316 195.706 16.0316C193.99 16.0452 193.026 16.9407 192.992 18.096H194.421C194.448 17.6107 194.934 17.1663 195.665 17.1663C196.369 17.1663 196.889 17.5696 196.896 18.1712C196.896 18.7659 196.383 19.2034 195.665 19.2034H194.824V20.3314ZM201.564 19.723C201.564 18.1028 202.139 17.2278 203.014 17.2278C203.896 17.2278 204.477 18.1097 204.477 19.723V20.0374C204.477 21.6507 203.896 22.5325 203.014 22.5325C202.139 22.5325 201.564 21.6575 201.564 20.0374V19.723ZM200.026 20.0443C200.026 22.2318 201.093 23.7288 203.007 23.7288C204.976 23.7288 206.008 22.1497 206.008 20.0443V19.7161C206.008 17.515 204.948 16.0316 203.027 16.0316C201.127 16.0316 200.026 17.5218 200.026 19.7161V20.0443Z" fill="#1D1F20"/>
<path opacity="0.4" d="M227.947 20.3314H228.829C229.684 20.3314 230.224 20.803 230.237 21.4456C230.237 22.1155 229.67 22.5872 228.795 22.5804C227.995 22.5804 227.421 22.1839 227.373 21.6507H225.965C225.999 22.7786 227.004 23.7288 228.781 23.7288C230.415 23.7288 231.775 22.9153 231.762 21.5071C231.748 20.3314 230.777 19.805 230.06 19.7435V19.6683C230.641 19.5794 231.543 19.012 231.522 17.9593C231.502 16.8519 230.47 16.0316 228.829 16.0316C227.113 16.0452 226.149 16.9407 226.115 18.096H227.544C227.571 17.6107 228.057 17.1663 228.788 17.1663C229.492 17.1663 230.012 17.5696 230.019 18.1712C230.019 18.7659 229.506 19.2034 228.788 19.2034H227.947V20.3314ZM233.245 21.6849C233.293 22.847 234.387 23.7288 236.027 23.7288C237.784 23.7288 238.987 22.6898 238.987 21.1038C238.987 19.5589 237.818 18.6907 236.458 18.6907C235.569 18.6907 235.029 19.0872 234.865 19.3265H234.797L234.968 17.3509H238.55V16.1683H233.737L233.409 20.4954H234.749C234.92 20.2015 235.344 19.8118 236.055 19.8118C236.841 19.8118 237.497 20.3314 237.497 21.1448C237.497 22.0472 236.807 22.5667 236.055 22.5667C235.398 22.5667 234.776 22.2728 234.653 21.6849H233.245Z" fill="#1D1F20"/>
<path opacity="0.4" d="M262.754 16.1751C261.701 17.7542 260.635 19.388 259.712 21.015V22.2112H263.526V23.5853H264.969V22.2112H265.939V21.0355H264.969V16.1751H262.754ZM261.1 21.0355V20.9944C261.824 19.7298 262.631 18.4515 263.444 17.2825H263.526V21.0355H261.1ZM268.681 19.723C268.681 18.1028 269.255 17.2278 270.13 17.2278C271.012 17.2278 271.593 18.1097 271.593 19.723V20.0374C271.593 21.6507 271.012 22.5325 270.13 22.5325C269.255 22.5325 268.681 21.6575 268.681 20.0374V19.723ZM267.143 20.0443C267.143 22.2318 268.209 23.7288 270.123 23.7288C272.092 23.7288 273.124 22.1497 273.124 20.0443V19.7161C273.124 17.515 272.064 16.0316 270.144 16.0316C268.243 16.0316 267.143 17.5218 267.143 19.7161V20.0443Z" fill="#1D1F20"/>
<path opacity="0.4" d="M295.877 16.1751C294.824 17.7542 293.758 19.388 292.835 21.015V22.2112H296.649V23.5853H298.092V22.2112H299.062V21.0355H298.092V16.1751H295.877ZM294.223 21.0355V20.9944C294.947 19.7298 295.754 18.4515 296.567 17.2825H296.649V21.0355H294.223ZM300.361 21.6849C300.409 22.847 301.503 23.7288 303.144 23.7288C304.9 23.7288 306.104 22.6898 306.104 21.1038C306.104 19.5589 304.935 18.6907 303.574 18.6907C302.686 18.6907 302.146 19.0872 301.981 19.3265H301.913L302.084 17.3509H305.666V16.1683H300.854L300.525 20.4954H301.865C302.036 20.2015 302.46 19.8118 303.171 19.8118C303.957 19.8118 304.613 20.3314 304.613 21.1448C304.613 22.0472 303.923 22.5667 303.171 22.5667C302.515 22.5667 301.893 22.2728 301.77 21.6849H300.361Z" fill="#1D1F20"/>
<path opacity="0.4" d="M326.013 21.6849C326.061 22.847 327.154 23.7288 328.795 23.7288C330.552 23.7288 331.755 22.6898 331.755 21.1038C331.755 19.5589 330.586 18.6907 329.226 18.6907C328.337 18.6907 327.797 19.0872 327.633 19.3265H327.564L327.735 17.3509H331.317V16.1683H326.505L326.177 20.4954H327.517C327.688 20.2015 328.111 19.8118 328.822 19.8118C329.608 19.8118 330.265 20.3314 330.265 21.1448C330.265 22.0472 329.574 22.5667 328.822 22.5667C328.166 22.5667 327.544 22.2728 327.421 21.6849H326.013ZM334.633 19.723C334.633 18.1028 335.207 17.2278 336.082 17.2278C336.964 17.2278 337.545 18.1097 337.545 19.723V20.0374C337.545 21.6507 336.964 22.5325 336.082 22.5325C335.207 22.5325 334.633 21.6575 334.633 20.0374V19.723ZM333.095 20.0443C333.095 22.2318 334.161 23.7288 336.075 23.7288C338.044 23.7288 339.076 22.1497 339.076 20.0443V19.7161C339.076 17.515 338.017 16.0316 336.096 16.0316C334.195 16.0316 333.095 17.5218 333.095 19.7161V20.0443Z" fill="#1D1F20"/>
<path opacity="0.4" d="M362.136 21.6849C362.184 22.847 363.277 23.7288 364.918 23.7288C366.675 23.7288 367.878 22.6898 367.878 21.1038C367.878 19.5589 366.709 18.6907 365.349 18.6907C364.46 18.6907 363.92 19.0872 363.756 19.3265H363.688L363.858 17.3509H367.44V16.1683H362.628L362.3 20.4954H363.64C363.811 20.2015 364.234 19.8118 364.945 19.8118C365.731 19.8118 366.388 20.3314 366.388 21.1448C366.388 22.0472 365.697 22.5667 364.945 22.5667C364.289 22.5667 363.667 22.2728 363.544 21.6849H362.136ZM369.313 21.6849C369.361 22.847 370.455 23.7288 372.096 23.7288C373.853 23.7288 375.056 22.6898 375.056 21.1038C375.056 19.5589 373.887 18.6907 372.526 18.6907C371.638 18.6907 371.098 19.0872 370.934 19.3265H370.865L371.036 17.3509H374.618V16.1683H369.806L369.478 20.4954H370.817C370.988 20.2015 371.412 19.8118 372.123 19.8118C372.909 19.8118 373.565 20.3314 373.565 21.1448C373.565 22.0472 372.875 22.5667 372.123 22.5667C371.467 22.5667 370.845 22.2728 370.722 21.6849H369.313Z" fill="#1D1F20"/>
<path opacity="0.4" d="M398.632 17.8909C398.577 17.0296 397.688 16.0452 395.986 16.0452C394.079 16.0452 392.835 17.3509 392.835 20.0716C392.835 21.1585 393.061 21.9515 393.423 22.5189C393.997 23.3939 394.913 23.7288 395.897 23.7288C397.565 23.7288 398.796 22.7786 398.796 21.1312C398.796 19.5657 397.559 18.7659 396.314 18.7659C395.241 18.7659 394.64 19.2855 394.4 19.7913H394.312C394.277 18.2464 394.927 17.2005 395.966 17.2005C396.677 17.2005 397.053 17.5628 397.162 17.8909H398.632ZM394.489 21.1927C394.489 20.4066 395.07 19.8528 395.904 19.8528C396.656 19.8528 397.306 20.3109 397.306 21.1927C397.306 22.1087 396.697 22.5735 395.904 22.5735C395.118 22.5735 394.489 22.054 394.489 21.1927ZM401.715 19.723C401.715 18.1028 402.289 17.2278 403.164 17.2278C404.046 17.2278 404.627 18.1097 404.627 19.723V20.0374C404.627 21.6507 404.046 22.5325 403.164 22.5325C402.289 22.5325 401.715 21.6575 401.715 20.0374V19.723ZM400.177 20.0443C400.177 22.2318 401.243 23.7288 403.157 23.7288C405.126 23.7288 406.158 22.1497 406.158 20.0443V19.7161C406.158 17.515 405.099 16.0316 403.178 16.0316C401.277 16.0316 400.177 17.5218 400.177 19.7161V20.0443Z" fill="#1D1F20"/>
<path opacity="0.4" d="M431.741 17.8909C431.687 17.0296 430.798 16.0452 429.096 16.0452C427.188 16.0452 425.944 17.3509 425.944 20.0716C425.944 21.1585 426.17 21.9515 426.532 22.5189C427.106 23.3939 428.022 23.7288 429.007 23.7288C430.675 23.7288 431.905 22.7786 431.905 21.1312C431.905 19.5657 430.668 18.7659 429.424 18.7659C428.351 18.7659 427.749 19.2855 427.51 19.7913H427.421C427.387 18.2464 428.036 17.2005 429.075 17.2005C429.786 17.2005 430.162 17.5628 430.271 17.8909H431.741ZM427.599 21.1927C427.599 20.4066 428.18 19.8528 429.014 19.8528C429.766 19.8528 430.415 20.3109 430.415 21.1927C430.415 22.1087 429.807 22.5735 429.014 22.5735C428.228 22.5735 427.599 22.054 427.599 21.1927ZM433.409 21.6849C433.457 22.847 434.551 23.7288 436.191 23.7288C437.948 23.7288 439.151 22.6898 439.151 21.1038C439.151 19.5589 437.982 18.6907 436.622 18.6907C435.733 18.6907 435.193 19.0872 435.029 19.3265H434.961L435.132 17.3509H438.714V16.1683H433.901L433.573 20.4954H434.913C435.084 20.2015 435.508 19.8118 436.219 19.8118C437.005 19.8118 437.661 20.3314 437.661 21.1448C437.661 22.0472 436.971 22.5667 436.219 22.5667C435.562 22.5667 434.94 22.2728 434.817 21.6849H433.409Z" fill="#1D1F20"/>
<path opacity="0.4" d="M458.677 16.1751V17.3646H462.546V17.4329L459.265 23.5853H460.885L464.091 17.3987V16.1751H458.677ZM466.777 19.723C466.777 18.1028 467.352 17.2278 468.227 17.2278C469.108 17.2278 469.689 18.1097 469.689 19.723V20.0374C469.689 21.6507 469.108 22.5325 468.227 22.5325C467.352 22.5325 466.777 21.6575 466.777 20.0374V19.723ZM465.239 20.0443C465.239 22.2318 466.306 23.7288 468.22 23.7288C470.188 23.7288 471.221 22.1497 471.221 20.0443V19.7161C471.221 17.515 470.161 16.0316 468.24 16.0316C466.34 16.0316 465.239 17.5218 465.239 19.7161V20.0443Z" fill="#1D1F20"/>
<path opacity="0.4" d="M491.731 16.1751V17.3646H495.601V17.4329L492.319 23.5853H493.939L497.146 17.3987V16.1751H491.731ZM498.526 21.6849C498.574 22.847 499.668 23.7288 501.309 23.7288C503.065 23.7288 504.269 22.6898 504.269 21.1038C504.269 19.5589 503.1 18.6907 501.739 18.6907C500.851 18.6907 500.311 19.0872 500.146 19.3265H500.078L500.249 17.3509H503.831V16.1683H499.019L498.69 20.4954H500.03C500.201 20.2015 500.625 19.8118 501.336 19.8118C502.122 19.8118 502.778 20.3314 502.778 21.1448C502.778 22.0472 502.088 22.5667 501.336 22.5667C500.68 22.5667 500.058 22.2728 499.935 21.6849H498.526Z" fill="#1D1F20"/>
<path opacity="0.4" d="M528.788 22.6693C527.927 22.6693 527.271 22.1771 527.271 21.4525C527.271 20.721 527.927 20.222 528.788 20.222C529.649 20.222 530.306 20.721 530.306 21.4525C530.306 22.1771 529.649 22.6693 528.788 22.6693ZM528.788 19.2239C528.063 19.2239 527.53 18.7864 527.53 18.1575C527.53 17.5286 528.063 17.1048 528.788 17.1048C529.513 17.1048 530.046 17.5286 530.046 18.1575C530.046 18.7864 529.513 19.2239 528.788 19.2239ZM528.768 23.7288C530.613 23.7288 531.823 22.8333 531.823 21.5482C531.823 20.3792 530.894 19.846 530.176 19.7025V19.6409C530.825 19.4564 531.516 18.9642 531.516 17.9935C531.516 16.8655 530.429 16.0316 528.788 16.0316C527.147 16.0316 526.054 16.8655 526.054 17.9935C526.054 18.9505 526.724 19.4495 527.394 19.6409V19.7025C526.683 19.846 525.746 20.3724 525.746 21.555C525.746 22.8401 526.929 23.7288 528.768 23.7288ZM534.756 19.723C534.756 18.1028 535.33 17.2278 536.205 17.2278C537.087 17.2278 537.668 18.1097 537.668 19.723V20.0374C537.668 21.6507 537.087 22.5325 536.205 22.5325C535.33 22.5325 534.756 21.6575 534.756 20.0374V19.723ZM533.218 20.0443C533.218 22.2318 534.284 23.7288 536.198 23.7288C538.167 23.7288 539.199 22.1497 539.199 20.0443V19.7161C539.199 17.515 538.14 16.0316 536.219 16.0316C534.318 16.0316 533.218 17.5218 533.218 19.7161V20.0443Z" fill="#1D1F20"/>
<path opacity="0.4" d="M561.911 22.6693C561.05 22.6693 560.394 22.1771 560.394 21.4525C560.394 20.721 561.05 20.222 561.911 20.222C562.772 20.222 563.429 20.721 563.429 21.4525C563.429 22.1771 562.772 22.6693 561.911 22.6693ZM561.911 19.2239C561.187 19.2239 560.653 18.7864 560.653 18.1575C560.653 17.5286 561.187 17.1048 561.911 17.1048C562.636 17.1048 563.169 17.5286 563.169 18.1575C563.169 18.7864 562.636 19.2239 561.911 19.2239ZM561.891 23.7288C563.736 23.7288 564.946 22.8333 564.946 21.5482C564.946 20.3792 564.017 19.846 563.299 19.7025V19.6409C563.948 19.4564 564.639 18.9642 564.639 17.9935C564.639 16.8655 563.552 16.0316 561.911 16.0316C560.271 16.0316 559.177 16.8655 559.177 17.9935C559.177 18.9505 559.847 19.4495 560.517 19.6409V19.7025C559.806 19.846 558.869 20.3724 558.869 21.555C558.869 22.8401 560.052 23.7288 561.891 23.7288ZM566.437 21.6849C566.484 22.847 567.578 23.7288 569.219 23.7288C570.976 23.7288 572.179 22.6898 572.179 21.1038C572.179 19.5589 571.01 18.6907 569.649 18.6907C568.761 18.6907 568.221 19.0872 568.057 19.3265H567.988L568.159 17.3509H571.741V16.1683H566.929L566.601 20.4954H567.94C568.111 20.2015 568.535 19.8118 569.246 19.8118C570.032 19.8118 570.688 20.3314 570.688 21.1448C570.688 22.0472 569.998 22.5667 569.246 22.5667C568.59 22.5667 567.968 22.2728 567.845 21.6849H566.437Z" fill="#1D1F20"/>
</svg>
