<svg width="591" height="406" viewBox="0 0 591 406" fill="none" xmlns="http://www.w3.org/2000/svg">
<line opacity="0.1" x1="148.25" y1="1.91615e-08" x2="148.25" y2="368.167" stroke="#848588"/>
<line opacity="0.1" x1="74.375" y1="1.91615e-08" x2="74.375" y2="368.167" stroke="#848588"/>
<line opacity="0.1" y1="275.625" x2="591" y2="275.625" stroke="#848588"/>
<line opacity="0.1" y1="183.583" x2="591" y2="183.583" stroke="#848588"/>
<line opacity="0.1" y1="91.5417" x2="591" y2="91.5417" stroke="#848588"/>
<line opacity="0.1" x1="222.125" y1="1.91615e-08" x2="222.125" y2="368.167" stroke="#848588"/>
<line opacity="0.1" x1="296" y1="1.91615e-08" x2="296" y2="368.167" stroke="#848588"/>
<line opacity="0.1" x1="369.875" y1="1.91615e-08" x2="369.875" y2="368.167" stroke="#848588"/>
<line opacity="0.1" x1="443.75" y1="1.91615e-08" x2="443.75" y2="368.167" stroke="#848588"/>
<line opacity="0.1" x1="517.625" y1="1.91615e-08" x2="517.625" y2="368.167" stroke="#848588"/>
<mask id="mask0" mask-type="alpha" maskUnits="userSpaceOnUse" x="0" y="0" width="583" height="361">
<rect x="0.5" y="0.5" width="582" height="360" fill="#C4C4C4" stroke="#1D1F20"/>
</mask>
<g mask="url(#mask0)">
<path d="M-14 347.147C139.17 347.147 581 347.147 581 -13.8915" stroke="#8EAEFF" stroke-width="4"/>
<circle cx="370" cy="291" r="6" fill="#F1F3F8" stroke="#8EAEFF" stroke-width="2"/>
<circle cx="407" cy="274" r="4" fill="#8EAEFF"/>
<circle cx="440" cy="255" r="4" fill="#8EAEFF"/>
<circle cx="473" cy="231" r="4" fill="#8EAEFF"/>
<circle cx="506" cy="199" r="4" fill="#8EAEFF"/>
<circle cx="539" cy="154" r="4" fill="#8EAEFF"/>
<circle cx="572" cy="69" r="4" fill="#8EAEFF"/>
<circle cx="333" cy="305" r="4" fill="#8EAEFF"/>
<circle cx="300" cy="315" r="4" fill="#8EAEFF"/>
<circle cx="267" cy="323" r="4" fill="#8EAEFF"/>
<circle cx="234" cy="330" r="4" fill="#8EAEFF"/>
<circle cx="201" cy="335" r="4" fill="#8EAEFF"/>
<circle cx="168" cy="339" r="4" fill="#8EAEFF"/>
<circle cx="135" cy="342" r="4" fill="#8EAEFF"/>
<circle cx="102" cy="344" r="4" fill="#8EAEFF"/>
<circle cx="69" cy="346" r="4" fill="#8EAEFF"/>
<circle cx="36" cy="347" r="4" fill="#8EAEFF"/>
</g>
<line opacity="0.4" x1="-3.53528e-08" y1="404.76" x2="591" y2="404.76" stroke="#1D1F20"/>
<line opacity="0.4" x1="-4.37114e-08" y1="367.667" x2="591" y2="367.667" stroke="#1D1F20"/>
<rect y="368" width="591" height="36" fill="#EAEEF4"/>
<path opacity="0.4" d="M32.8135 388.685C32.8613 389.847 33.9551 390.729 35.5957 390.729C37.3525 390.729 38.5557 389.69 38.5557 388.104C38.5557 386.559 37.3867 385.691 36.0264 385.691C35.1377 385.691 34.5977 386.087 34.4336 386.327H34.3652L34.5361 384.351H38.1182V383.168H33.3057L32.9775 387.495H34.3174C34.4883 387.202 34.9121 386.812 35.623 386.812C36.4092 386.812 37.0654 387.331 37.0654 388.145C37.0654 389.047 36.375 389.567 35.623 389.567C34.9668 389.567 34.3447 389.273 34.2217 388.685H32.8135Z" fill="#1D1F20"/>
<path opacity="0.4" d="M66.1836 390.585V383.175H64.6592C64.1875 383.449 63.2236 384.077 62.793 384.412V385.821C63.3125 385.424 64.208 384.809 64.5977 384.583H64.6592V390.585H66.1836ZM69.9707 386.723C69.9707 385.103 70.5449 384.228 71.4199 384.228C72.3018 384.228 72.8828 385.11 72.8828 386.723V387.037C72.8828 388.651 72.3018 389.533 71.4199 389.533C70.5449 389.533 69.9707 388.658 69.9707 387.037V386.723ZM68.4326 387.044C68.4326 389.232 69.499 390.729 71.4131 390.729C73.3818 390.729 74.4141 389.15 74.4141 387.044V386.716C74.4141 384.515 73.3545 383.032 71.4336 383.032C69.5332 383.032 68.4326 384.522 68.4326 386.716V387.044Z" fill="#1D1F20"/>
<path opacity="0.4" d="M99.2373 390.585V383.175H97.7129C97.2412 383.449 96.2773 384.077 95.8467 384.412V385.821C96.3662 385.424 97.2617 384.809 97.6514 384.583H97.7129V390.585H99.2373ZM101.582 388.685C101.63 389.847 102.724 390.729 104.364 390.729C106.121 390.729 107.324 389.69 107.324 388.104C107.324 386.559 106.155 385.691 104.795 385.691C103.906 385.691 103.366 386.087 103.202 386.327H103.134L103.305 384.351H106.887V383.168H102.074L101.746 387.495H103.086C103.257 387.202 103.681 386.812 104.392 386.812C105.178 386.812 105.834 387.331 105.834 388.145C105.834 389.047 105.144 389.567 104.392 389.567C103.735 389.567 103.113 389.273 102.99 388.685H101.582Z" fill="#1D1F20"/>
<path opacity="0.4" d="M128.558 385.39C128.558 385.369 128.551 385.328 128.551 385.308C128.551 384.727 128.995 384.207 129.754 384.207C130.438 384.207 130.943 384.631 130.943 385.246C130.943 385.855 130.485 386.333 130.062 386.75L127.163 389.676V390.585H132.604V389.396H129.282V389.327L131.087 387.461C131.777 386.757 132.468 386.121 132.468 385.11C132.468 383.927 131.415 383.032 129.788 383.032C127.97 383.032 127.095 384.18 127.095 385.315V385.39H128.558ZM135.489 386.723C135.489 385.103 136.063 384.228 136.938 384.228C137.82 384.228 138.401 385.11 138.401 386.723V387.037C138.401 388.651 137.82 389.533 136.938 389.533C136.063 389.533 135.489 388.658 135.489 387.037V386.723ZM133.951 387.044C133.951 389.232 135.018 390.729 136.932 390.729C138.9 390.729 139.933 389.15 139.933 387.044V386.716C139.933 384.515 138.873 383.032 136.952 383.032C135.052 383.032 133.951 384.522 133.951 386.716V387.044Z" fill="#1D1F20"/>
<path opacity="0.4" d="M161.681 385.39C161.681 385.369 161.674 385.328 161.674 385.308C161.674 384.727 162.118 384.207 162.877 384.207C163.561 384.207 164.066 384.631 164.066 385.246C164.066 385.855 163.608 386.333 163.185 386.75L160.286 389.676V390.585H165.728V389.396H162.405V389.327L164.21 387.461C164.9 386.757 165.591 386.121 165.591 385.11C165.591 383.927 164.538 383.032 162.911 383.032C161.093 383.032 160.218 384.18 160.218 385.315V385.39H161.681ZM167.17 388.685C167.218 389.847 168.312 390.729 169.952 390.729C171.709 390.729 172.912 389.69 172.912 388.104C172.912 386.559 171.743 385.691 170.383 385.691C169.494 385.691 168.954 386.087 168.79 386.327H168.722L168.893 384.351H172.475V383.168H167.662L167.334 387.495H168.674C168.845 387.202 169.269 386.812 169.979 386.812C170.766 386.812 171.422 387.331 171.422 388.145C171.422 389.047 170.731 389.567 169.979 389.567C169.323 389.567 168.701 389.273 168.578 388.685H167.17Z" fill="#1D1F20"/>
<path opacity="0.4" d="M194.824 387.331H195.706C196.561 387.331 197.101 387.803 197.114 388.446C197.114 389.116 196.547 389.587 195.672 389.58C194.872 389.58 194.298 389.184 194.25 388.651H192.842C192.876 389.779 193.881 390.729 195.658 390.729C197.292 390.729 198.652 389.915 198.639 388.507C198.625 387.331 197.654 386.805 196.937 386.743V386.668C197.518 386.579 198.42 386.012 198.399 384.959C198.379 383.852 197.347 383.032 195.706 383.032C193.99 383.045 193.026 383.941 192.992 385.096H194.421C194.448 384.611 194.934 384.166 195.665 384.166C196.369 384.166 196.889 384.57 196.896 385.171C196.896 385.766 196.383 386.203 195.665 386.203H194.824V387.331ZM201.564 386.723C201.564 385.103 202.139 384.228 203.014 384.228C203.896 384.228 204.477 385.11 204.477 386.723V387.037C204.477 388.651 203.896 389.533 203.014 389.533C202.139 389.533 201.564 388.658 201.564 387.037V386.723ZM200.026 387.044C200.026 389.232 201.093 390.729 203.007 390.729C204.976 390.729 206.008 389.15 206.008 387.044V386.716C206.008 384.515 204.948 383.032 203.027 383.032C201.127 383.032 200.026 384.522 200.026 386.716V387.044Z" fill="#1D1F20"/>
<path opacity="0.4" d="M227.947 387.331H228.829C229.684 387.331 230.224 387.803 230.237 388.446C230.237 389.116 229.67 389.587 228.795 389.58C227.995 389.58 227.421 389.184 227.373 388.651H225.965C225.999 389.779 227.004 390.729 228.781 390.729C230.415 390.729 231.775 389.915 231.762 388.507C231.748 387.331 230.777 386.805 230.06 386.743V386.668C230.641 386.579 231.543 386.012 231.522 384.959C231.502 383.852 230.47 383.032 228.829 383.032C227.113 383.045 226.149 383.941 226.115 385.096H227.544C227.571 384.611 228.057 384.166 228.788 384.166C229.492 384.166 230.012 384.57 230.019 385.171C230.019 385.766 229.506 386.203 228.788 386.203H227.947V387.331ZM233.245 388.685C233.293 389.847 234.387 390.729 236.027 390.729C237.784 390.729 238.987 389.69 238.987 388.104C238.987 386.559 237.818 385.691 236.458 385.691C235.569 385.691 235.029 386.087 234.865 386.327H234.797L234.968 384.351H238.55V383.168H233.737L233.409 387.495H234.749C234.92 387.202 235.344 386.812 236.055 386.812C236.841 386.812 237.497 387.331 237.497 388.145C237.497 389.047 236.807 389.567 236.055 389.567C235.398 389.567 234.776 389.273 234.653 388.685H233.245Z" fill="#1D1F20"/>
<path opacity="0.4" d="M262.754 383.175C261.701 384.754 260.635 386.388 259.712 388.015V389.211H263.526V390.585H264.969V389.211H265.939V388.035H264.969V383.175H262.754ZM261.1 388.035V387.994C261.824 386.73 262.631 385.452 263.444 384.283H263.526V388.035H261.1ZM268.681 386.723C268.681 385.103 269.255 384.228 270.13 384.228C271.012 384.228 271.593 385.11 271.593 386.723V387.037C271.593 388.651 271.012 389.533 270.13 389.533C269.255 389.533 268.681 388.658 268.681 387.037V386.723ZM267.143 387.044C267.143 389.232 268.209 390.729 270.123 390.729C272.092 390.729 273.124 389.15 273.124 387.044V386.716C273.124 384.515 272.064 383.032 270.144 383.032C268.243 383.032 267.143 384.522 267.143 386.716V387.044Z" fill="#1D1F20"/>
<path opacity="0.4" d="M295.877 383.175C294.824 384.754 293.758 386.388 292.835 388.015V389.211H296.649V390.585H298.092V389.211H299.062V388.035H298.092V383.175H295.877ZM294.223 388.035V387.994C294.947 386.73 295.754 385.452 296.567 384.283H296.649V388.035H294.223ZM300.361 388.685C300.409 389.847 301.503 390.729 303.144 390.729C304.9 390.729 306.104 389.69 306.104 388.104C306.104 386.559 304.935 385.691 303.574 385.691C302.686 385.691 302.146 386.087 301.981 386.327H301.913L302.084 384.351H305.666V383.168H300.854L300.525 387.495H301.865C302.036 387.202 302.46 386.812 303.171 386.812C303.957 386.812 304.613 387.331 304.613 388.145C304.613 389.047 303.923 389.567 303.171 389.567C302.515 389.567 301.893 389.273 301.77 388.685H300.361Z" fill="#1D1F20"/>
<path opacity="0.4" d="M326.013 388.685C326.061 389.847 327.154 390.729 328.795 390.729C330.552 390.729 331.755 389.69 331.755 388.104C331.755 386.559 330.586 385.691 329.226 385.691C328.337 385.691 327.797 386.087 327.633 386.327H327.564L327.735 384.351H331.317V383.168H326.505L326.177 387.495H327.517C327.688 387.202 328.111 386.812 328.822 386.812C329.608 386.812 330.265 387.331 330.265 388.145C330.265 389.047 329.574 389.567 328.822 389.567C328.166 389.567 327.544 389.273 327.421 388.685H326.013ZM334.633 386.723C334.633 385.103 335.207 384.228 336.082 384.228C336.964 384.228 337.545 385.11 337.545 386.723V387.037C337.545 388.651 336.964 389.533 336.082 389.533C335.207 389.533 334.633 388.658 334.633 387.037V386.723ZM333.095 387.044C333.095 389.232 334.161 390.729 336.075 390.729C338.044 390.729 339.076 389.15 339.076 387.044V386.716C339.076 384.515 338.017 383.032 336.096 383.032C334.195 383.032 333.095 384.522 333.095 386.716V387.044Z" fill="#1D1F20"/>
<path opacity="0.4" d="M362.136 388.685C362.184 389.847 363.277 390.729 364.918 390.729C366.675 390.729 367.878 389.69 367.878 388.104C367.878 386.559 366.709 385.691 365.349 385.691C364.46 385.691 363.92 386.087 363.756 386.327H363.688L363.858 384.351H367.44V383.168H362.628L362.3 387.495H363.64C363.811 387.202 364.234 386.812 364.945 386.812C365.731 386.812 366.388 387.331 366.388 388.145C366.388 389.047 365.697 389.567 364.945 389.567C364.289 389.567 363.667 389.273 363.544 388.685H362.136ZM369.313 388.685C369.361 389.847 370.455 390.729 372.096 390.729C373.853 390.729 375.056 389.69 375.056 388.104C375.056 386.559 373.887 385.691 372.526 385.691C371.638 385.691 371.098 386.087 370.934 386.327H370.865L371.036 384.351H374.618V383.168H369.806L369.478 387.495H370.817C370.988 387.202 371.412 386.812 372.123 386.812C372.909 386.812 373.565 387.331 373.565 388.145C373.565 389.047 372.875 389.567 372.123 389.567C371.467 389.567 370.845 389.273 370.722 388.685H369.313Z" fill="#1D1F20"/>
<path opacity="0.4" d="M398.632 384.891C398.577 384.03 397.688 383.045 395.986 383.045C394.079 383.045 392.835 384.351 392.835 387.072C392.835 388.159 393.061 388.952 393.423 389.519C393.997 390.394 394.913 390.729 395.897 390.729C397.565 390.729 398.796 389.779 398.796 388.131C398.796 386.566 397.559 385.766 396.314 385.766C395.241 385.766 394.64 386.285 394.4 386.791H394.312C394.277 385.246 394.927 384.201 395.966 384.201C396.677 384.201 397.053 384.563 397.162 384.891H398.632ZM394.489 388.193C394.489 387.407 395.07 386.853 395.904 386.853C396.656 386.853 397.306 387.311 397.306 388.193C397.306 389.109 396.697 389.574 395.904 389.574C395.118 389.574 394.489 389.054 394.489 388.193ZM401.715 386.723C401.715 385.103 402.289 384.228 403.164 384.228C404.046 384.228 404.627 385.11 404.627 386.723V387.037C404.627 388.651 404.046 389.533 403.164 389.533C402.289 389.533 401.715 388.658 401.715 387.037V386.723ZM400.177 387.044C400.177 389.232 401.243 390.729 403.157 390.729C405.126 390.729 406.158 389.15 406.158 387.044V386.716C406.158 384.515 405.099 383.032 403.178 383.032C401.277 383.032 400.177 384.522 400.177 386.716V387.044Z" fill="#1D1F20"/>
<path opacity="0.4" d="M431.741 384.891C431.687 384.03 430.798 383.045 429.096 383.045C427.188 383.045 425.944 384.351 425.944 387.072C425.944 388.159 426.17 388.952 426.532 389.519C427.106 390.394 428.022 390.729 429.007 390.729C430.675 390.729 431.905 389.779 431.905 388.131C431.905 386.566 430.668 385.766 429.424 385.766C428.351 385.766 427.749 386.285 427.51 386.791H427.421C427.387 385.246 428.036 384.201 429.075 384.201C429.786 384.201 430.162 384.563 430.271 384.891H431.741ZM427.599 388.193C427.599 387.407 428.18 386.853 429.014 386.853C429.766 386.853 430.415 387.311 430.415 388.193C430.415 389.109 429.807 389.574 429.014 389.574C428.228 389.574 427.599 389.054 427.599 388.193ZM433.409 388.685C433.457 389.847 434.551 390.729 436.191 390.729C437.948 390.729 439.151 389.69 439.151 388.104C439.151 386.559 437.982 385.691 436.622 385.691C435.733 385.691 435.193 386.087 435.029 386.327H434.961L435.132 384.351H438.714V383.168H433.901L433.573 387.495H434.913C435.084 387.202 435.508 386.812 436.219 386.812C437.005 386.812 437.661 387.331 437.661 388.145C437.661 389.047 436.971 389.567 436.219 389.567C435.562 389.567 434.94 389.273 434.817 388.685H433.409Z" fill="#1D1F20"/>
<path opacity="0.4" d="M458.677 383.175V384.365H462.546V384.433L459.265 390.585H460.885L464.091 384.399V383.175H458.677ZM466.777 386.723C466.777 385.103 467.352 384.228 468.227 384.228C469.108 384.228 469.689 385.11 469.689 386.723V387.037C469.689 388.651 469.108 389.533 468.227 389.533C467.352 389.533 466.777 388.658 466.777 387.037V386.723ZM465.239 387.044C465.239 389.232 466.306 390.729 468.22 390.729C470.188 390.729 471.221 389.15 471.221 387.044V386.716C471.221 384.515 470.161 383.032 468.24 383.032C466.34 383.032 465.239 384.522 465.239 386.716V387.044Z" fill="#1D1F20"/>
<path opacity="0.4" d="M491.731 383.175V384.365H495.601V384.433L492.319 390.585H493.939L497.146 384.399V383.175H491.731ZM498.526 388.685C498.574 389.847 499.668 390.729 501.309 390.729C503.065 390.729 504.269 389.69 504.269 388.104C504.269 386.559 503.1 385.691 501.739 385.691C500.851 385.691 500.311 386.087 500.146 386.327H500.078L500.249 384.351H503.831V383.168H499.019L498.69 387.495H500.03C500.201 387.202 500.625 386.812 501.336 386.812C502.122 386.812 502.778 387.331 502.778 388.145C502.778 389.047 502.088 389.567 501.336 389.567C500.68 389.567 500.058 389.273 499.935 388.685H498.526Z" fill="#1D1F20"/>
<path opacity="0.4" d="M528.788 389.669C527.927 389.669 527.271 389.177 527.271 388.452C527.271 387.721 527.927 387.222 528.788 387.222C529.649 387.222 530.306 387.721 530.306 388.452C530.306 389.177 529.649 389.669 528.788 389.669ZM528.788 386.224C528.063 386.224 527.53 385.786 527.53 385.158C527.53 384.529 528.063 384.105 528.788 384.105C529.513 384.105 530.046 384.529 530.046 385.158C530.046 385.786 529.513 386.224 528.788 386.224ZM528.768 390.729C530.613 390.729 531.823 389.833 531.823 388.548C531.823 387.379 530.894 386.846 530.176 386.702V386.641C530.825 386.456 531.516 385.964 531.516 384.993C531.516 383.866 530.429 383.032 528.788 383.032C527.147 383.032 526.054 383.866 526.054 384.993C526.054 385.951 526.724 386.45 527.394 386.641V386.702C526.683 386.846 525.746 387.372 525.746 388.555C525.746 389.84 526.929 390.729 528.768 390.729ZM534.756 386.723C534.756 385.103 535.33 384.228 536.205 384.228C537.087 384.228 537.668 385.11 537.668 386.723V387.037C537.668 388.651 537.087 389.533 536.205 389.533C535.33 389.533 534.756 388.658 534.756 387.037V386.723ZM533.218 387.044C533.218 389.232 534.284 390.729 536.198 390.729C538.167 390.729 539.199 389.15 539.199 387.044V386.716C539.199 384.515 538.14 383.032 536.219 383.032C534.318 383.032 533.218 384.522 533.218 386.716V387.044Z" fill="#1D1F20"/>
<path opacity="0.4" d="M561.911 389.669C561.05 389.669 560.394 389.177 560.394 388.452C560.394 387.721 561.05 387.222 561.911 387.222C562.772 387.222 563.429 387.721 563.429 388.452C563.429 389.177 562.772 389.669 561.911 389.669ZM561.911 386.224C561.187 386.224 560.653 385.786 560.653 385.158C560.653 384.529 561.187 384.105 561.911 384.105C562.636 384.105 563.169 384.529 563.169 385.158C563.169 385.786 562.636 386.224 561.911 386.224ZM561.891 390.729C563.736 390.729 564.946 389.833 564.946 388.548C564.946 387.379 564.017 386.846 563.299 386.702V386.641C563.948 386.456 564.639 385.964 564.639 384.993C564.639 383.866 563.552 383.032 561.911 383.032C560.271 383.032 559.177 383.866 559.177 384.993C559.177 385.951 559.847 386.45 560.517 386.641V386.702C559.806 386.846 558.869 387.372 558.869 388.555C558.869 389.84 560.052 390.729 561.891 390.729ZM566.437 388.685C566.484 389.847 567.578 390.729 569.219 390.729C570.976 390.729 572.179 389.69 572.179 388.104C572.179 386.559 571.01 385.691 569.649 385.691C568.761 385.691 568.221 386.087 568.057 386.327H567.988L568.159 384.351H571.741V383.168H566.929L566.601 387.495H567.94C568.111 387.202 568.535 386.812 569.246 386.812C570.032 386.812 570.688 387.331 570.688 388.145C570.688 389.047 569.998 389.567 569.246 389.567C568.59 389.567 567.968 389.273 567.845 388.685H566.437Z" fill="#1D1F20"/>
</svg>
