<svg width="591" height="406" viewBox="0 0 591 406" fill="none" xmlns="http://www.w3.org/2000/svg">
<line opacity="0.1" x1="56.5" y1="1.91615e-08" x2="56.5" y2="368.167" stroke="#848588"/>
<line opacity="0.1" x1="122.5" y1="1.91615e-08" x2="122.5" y2="368.167" stroke="#848588"/>
<line opacity="0.1" x1="190.5" y1="1.91615e-08" x2="190.5" y2="368.167" stroke="#848588"/>
<line opacity="0.1" x1="258.5" y1="1.91615e-08" x2="258.5" y2="368.167" stroke="#848588"/>
<line opacity="0.1" x1="326.5" y1="1.91615e-08" x2="326.5" y2="368.167" stroke="#848588"/>
<line opacity="0.1" x1="394.5" y1="1.91615e-08" x2="394.5" y2="368.167" stroke="#848588"/>
<line opacity="0.1" x1="462.5" y1="1.91615e-08" x2="462.5" y2="368.167" stroke="#848588"/>
<line opacity="0.1" x1="528.5" y1="1.91615e-08" x2="528.5" y2="368.167" stroke="#848588"/>
<line opacity="0.1" y1="275.625" x2="591" y2="275.625" stroke="#848588"/>
<line opacity="0.1" y1="183.583" x2="591" y2="183.583" stroke="#848588"/>
<line opacity="0.1" y1="91.5417" x2="591" y2="91.5417" stroke="#848588"/>
<mask id="mask0" mask-type="alpha" maskUnits="userSpaceOnUse" x="0" y="0" width="583" height="361">
<rect x="0.5" y="0.5" width="582" height="360" fill="#C4C4C4" stroke="#1D1F20"/>
</mask>
<g mask="url(#mask0)">
<path d="M-14 347C136.081 347 569 347 569 -14" stroke="#8EAEFF" stroke-width="4"/>
<circle cx="366.5" cy="288.5" r="12.5" fill="white" stroke="#8EAEFF" stroke-width="2"/>
<path d="M362.337 293.012C364.271 293.012 365.55 291.85 365.55 290.141C365.55 288.603 364.456 287.495 362.925 287.495C362.098 287.495 361.53 287.817 361.216 288.316H361.113L361.264 286.525H365.044V284.925H359.712L359.329 289.546H361.1C361.359 289.156 361.776 288.91 362.351 288.91C363.109 288.91 363.656 289.416 363.656 290.195C363.656 290.941 363.116 291.426 362.351 291.426C361.667 291.426 361.12 291.064 361.031 290.496H359.206C359.24 291.925 360.478 293.012 362.337 293.012ZM370.745 293.012C372.625 293.012 373.951 291.836 373.951 290.168C373.951 288.671 372.823 287.57 371.292 287.57C370.362 287.57 369.638 287.981 369.275 288.712H369.173C369.098 287.29 369.733 286.292 370.745 286.292C371.299 286.292 371.75 286.566 371.887 286.976H373.849C373.63 285.643 372.365 284.713 370.752 284.713C368.599 284.713 367.266 286.313 367.266 288.883C367.266 290.066 367.546 291.057 368.079 291.761C368.66 292.574 369.597 293.012 370.745 293.012ZM370.725 291.426C370 291.426 369.433 290.9 369.433 290.223C369.433 289.553 369.993 289.04 370.725 289.04C371.47 289.04 372.023 289.553 372.023 290.23C372.023 290.9 371.456 291.426 370.725 291.426Z" fill="#8EAEFF"/>
</g>
<line opacity="0.4" x1="-3.53528e-08" y1="404.76" x2="591" y2="404.76" stroke="#1D1F20"/>
<line opacity="0.4" x1="-4.37114e-08" y1="367.667" x2="591" y2="367.667" stroke="#1D1F20"/>
<rect y="368" width="591" height="36" fill="#EAEEF4"/>
<circle cx="26" cy="347" r="4" fill="#8EAEFF"/>
<path opacity="0.5" d="M17.2617 384V380.104H17.3262L20.1035 384H21.3516V377.602H19.8809V381.463H19.8164L17.0566 377.602H15.8027V384H17.2617ZM24.4395 377.602H22.8691V381.779C22.8691 383.191 23.9648 384.117 25.6875 384.117C27.4043 384.117 28.5 383.197 28.5 381.785V377.602H26.9297V381.615C26.9297 382.43 26.4258 382.857 25.6875 382.857C24.9434 382.857 24.4395 382.441 24.4395 381.615V377.602ZM31.4297 384V379.98H31.5059L32.9824 383.062H33.9199L35.3848 379.98H35.4551V384H36.873V377.602H35.2676L33.4863 381.316H33.4277L31.6523 377.602H30.041V384H31.4297ZM38.4902 384H41.4844C42.7852 384 43.834 383.367 43.834 382.184C43.834 381.205 43.0957 380.695 42.3105 380.637V380.572C42.9492 380.449 43.5117 380.004 43.5117 379.178C43.5117 378.182 42.668 377.602 41.4492 377.602H38.4902V384ZM40.043 378.686H41.0566C41.6074 378.686 41.9766 378.943 41.9766 379.43C41.9766 379.916 41.6133 380.203 40.8516 380.203H40.043V378.686ZM40.043 381.199H41.1387C41.8418 381.199 42.2461 381.516 42.2461 382.066C42.2461 382.664 41.7539 382.922 40.9453 382.922H40.043V381.199ZM49.5762 382.805H46.6289V381.334H49.3945V380.221H46.6289V378.797H49.5762V377.602H45.0762V384H49.5762V382.805ZM53.8184 377.602H50.9941V384H52.5352V381.703H53.5254L54.6797 384H56.4199L55.0723 381.486C55.5469 381.311 56.291 380.742 56.291 379.688C56.291 378.492 55.4766 377.602 53.8184 377.602ZM52.5352 380.625V378.738H53.5898C54.1934 378.738 54.668 379.055 54.668 379.699C54.668 380.314 54.2344 380.625 53.5723 380.625H52.5352ZM61.3008 380.426C61.3008 379.301 61.8691 378.709 62.6953 378.709C63.5156 378.709 64.084 379.301 64.084 380.426V381.205C64.084 382.336 63.5156 382.893 62.6953 382.893C61.8691 382.893 61.3008 382.336 61.3008 381.205V380.426ZM59.707 381.199C59.707 383.004 60.8027 384.117 62.6895 384.117C64.582 384.117 65.6895 383.004 65.6895 381.199V380.443C65.6895 378.639 64.5938 377.484 62.7012 377.484C60.8145 377.484 59.707 378.627 59.707 380.443V381.199ZM68.584 384V381.568H71.2207V380.396H68.584V378.814H71.4844V377.602H67.0137V384H68.584ZM18.6211 395V389.826H20.4844V388.602H15.1875V389.826H17.0508V395H18.6211ZM22.7344 391.426C22.7344 390.301 23.3027 389.709 24.1289 389.709C24.9492 389.709 25.5176 390.301 25.5176 391.426V392.205C25.5176 393.336 24.9492 393.893 24.1289 393.893C23.3027 393.893 22.7344 393.336 22.7344 392.205V391.426ZM21.1406 392.199C21.1406 394.004 22.2363 395.117 24.123 395.117C26.0156 395.117 27.123 394.004 27.123 392.199V391.443C27.123 389.639 26.0273 388.484 24.1348 388.484C22.248 388.484 21.1406 389.627 21.1406 391.443V392.199ZM34.1543 388.602H32.4609L30.0879 391.35H30.0176V388.602H28.4473V395H30.0176V393.049L30.6387 392.369L32.3848 395H34.2422L31.793 391.373L34.1543 388.602ZM39.6152 393.805H36.668V392.334H39.4336V391.221H36.668V389.797H39.6152V388.602H35.1152V395H39.6152V393.805ZM42.4922 395V391.104H42.5566L45.334 395H46.582V388.602H45.1113V392.463H45.0469L42.2871 388.602H41.0332V395H42.4922ZM47.7949 393.137C47.8125 394.057 48.4629 395.117 50.5078 395.117C52.248 395.117 53.2676 394.309 53.2676 393.061C53.2676 391.859 52.4004 391.402 51.416 391.221L50.4258 391.027C49.8281 390.916 49.5117 390.699 49.5117 390.348C49.5117 389.908 49.8926 389.627 50.5547 389.627C51.3047 389.627 51.668 390.014 51.7031 390.424H53.1504C53.1387 389.322 52.1543 388.479 50.5605 388.479C49.0781 388.479 47.9414 389.193 47.9414 390.465C47.9414 391.578 48.7441 392.088 49.7227 392.275L50.7012 392.475C51.3691 392.615 51.7148 392.803 51.7148 393.213C51.7148 393.646 51.334 393.957 50.5723 393.957C49.7578 393.957 49.3242 393.564 49.2949 393.137H47.7949ZM58.3125 395V390.98H58.3887L59.8652 394.062H60.8027L62.2676 390.98H62.3379V395H63.7559V388.602H62.1504L60.3691 392.316H60.3105L58.5352 388.602H56.9238V395H58.3125ZM66.9434 395V388.602H65.373V395H66.9434ZM70.0078 395V391.104H70.0723L72.8496 395H74.0977V388.602H72.627V392.463H72.5625L69.8027 388.602H68.5488V395H70.0078ZM78.5156 395V389.826H80.3789V388.602H75.082V389.826H76.9453V395H78.5156ZM85.8691 393.805H82.9219V392.334H85.6875V391.221H82.9219V389.797H85.8691V388.602H81.3691V395H85.8691V393.805ZM87.2871 388.602V395H89.9004C92.0859 395 92.9531 393.67 92.9531 391.777C92.9531 389.891 92.0859 388.602 89.9004 388.602H87.2871ZM88.8574 389.797H89.6602C90.9844 389.797 91.3418 390.705 91.3418 391.812C91.3418 393.365 90.6797 393.805 89.6602 393.805H88.8574V389.797Z" fill="#1D1F20"/>
<circle cx="56" cy="346" r="4" fill="#8EAEFF"/>
<circle cx="89" cy="345" r="4" fill="#8EAEFF"/>
<circle cx="122" cy="343" r="4" fill="#8EAEFF"/>
<circle cx="156" cy="340" r="4" fill="#8EAEFF"/>
<path opacity="0.4" d="M150.681 385.805C150.681 385.784 150.674 385.743 150.674 385.723C150.674 385.142 151.118 384.622 151.877 384.622C152.561 384.622 153.066 385.046 153.066 385.661C153.066 386.27 152.608 386.748 152.185 387.165L149.286 390.091V391H154.728V389.811H151.405V389.742L153.21 387.876C153.9 387.172 154.591 386.536 154.591 385.524C154.591 384.342 153.538 383.446 151.911 383.446C150.093 383.446 149.218 384.595 149.218 385.729V385.805H150.681ZM156.17 389.1C156.218 390.262 157.312 391.144 158.952 391.144C160.709 391.144 161.912 390.104 161.912 388.519C161.912 386.974 160.743 386.105 159.383 386.105C158.494 386.105 157.954 386.502 157.79 386.741H157.722L157.893 384.766H161.475V383.583H156.662L156.334 387.91H157.674C157.845 387.616 158.269 387.227 158.979 387.227C159.766 387.227 160.422 387.746 160.422 388.56C160.422 389.462 159.731 389.981 158.979 389.981C158.323 389.981 157.701 389.688 157.578 389.1H156.17Z" fill="#1D1F20"/>
<path opacity="0.4" d="M116.558 385.805C116.558 385.784 116.551 385.743 116.551 385.723C116.551 385.142 116.995 384.622 117.754 384.622C118.438 384.622 118.943 385.046 118.943 385.661C118.943 386.27 118.485 386.748 118.062 387.165L115.163 390.091V391H120.604V389.811H117.282V389.742L119.087 387.876C119.777 387.172 120.468 386.536 120.468 385.524C120.468 384.342 119.415 383.446 117.788 383.446C115.97 383.446 115.095 384.595 115.095 385.729V385.805H116.558ZM123.489 387.138C123.489 385.518 124.063 384.643 124.938 384.643C125.82 384.643 126.401 385.524 126.401 387.138V387.452C126.401 389.065 125.82 389.947 124.938 389.947C124.063 389.947 123.489 389.072 123.489 387.452V387.138ZM121.951 387.459C121.951 389.646 123.018 391.144 124.932 391.144C126.9 391.144 127.933 389.564 127.933 387.459V387.131C127.933 384.93 126.873 383.446 124.952 383.446C123.052 383.446 121.951 384.937 121.951 387.131V387.459Z" fill="#1D1F20"/>
<circle cx="190" cy="336" r="4" fill="#8EAEFF"/>
<path opacity="0.4" d="M184.824 387.746H185.706C186.561 387.746 187.101 388.218 187.114 388.86C187.114 389.53 186.547 390.002 185.672 389.995C184.872 389.995 184.298 389.599 184.25 389.065H182.842C182.876 390.193 183.881 391.144 185.658 391.144C187.292 391.144 188.652 390.33 188.639 388.922C188.625 387.746 187.654 387.22 186.937 387.158V387.083C187.518 386.994 188.42 386.427 188.399 385.374C188.379 384.267 187.347 383.446 185.706 383.446C183.99 383.46 183.026 384.355 182.992 385.511H184.421C184.448 385.025 184.934 384.581 185.665 384.581C186.369 384.581 186.889 384.984 186.896 385.586C186.896 386.181 186.383 386.618 185.665 386.618H184.824V387.746ZM191.564 387.138C191.564 385.518 192.139 384.643 193.014 384.643C193.896 384.643 194.477 385.524 194.477 387.138V387.452C194.477 389.065 193.896 389.947 193.014 389.947C192.139 389.947 191.564 389.072 191.564 387.452V387.138ZM190.026 387.459C190.026 389.646 191.093 391.144 193.007 391.144C194.976 391.144 196.008 389.564 196.008 387.459V387.131C196.008 384.93 194.948 383.446 193.027 383.446C191.127 383.446 190.026 384.937 190.026 387.131V387.459Z" fill="#1D1F20"/>
<circle cx="224" cy="330" r="4" fill="#8EAEFF"/>
<path opacity="0.4" d="M218.947 387.746H219.829C220.684 387.746 221.224 388.218 221.237 388.86C221.237 389.53 220.67 390.002 219.795 389.995C218.995 389.995 218.421 389.599 218.373 389.065H216.965C216.999 390.193 218.004 391.144 219.781 391.144C221.415 391.144 222.775 390.33 222.762 388.922C222.748 387.746 221.777 387.22 221.06 387.158V387.083C221.641 386.994 222.543 386.427 222.522 385.374C222.502 384.267 221.47 383.446 219.829 383.446C218.113 383.46 217.149 384.355 217.115 385.511H218.544C218.571 385.025 219.057 384.581 219.788 384.581C220.492 384.581 221.012 384.984 221.019 385.586C221.019 386.181 220.506 386.618 219.788 386.618H218.947V387.746ZM224.245 389.1C224.293 390.262 225.387 391.144 227.027 391.144C228.784 391.144 229.987 390.104 229.987 388.519C229.987 386.974 228.818 386.105 227.458 386.105C226.569 386.105 226.029 386.502 225.865 386.741H225.797L225.968 384.766H229.55V383.583H224.737L224.409 387.91H225.749C225.92 387.616 226.344 387.227 227.055 387.227C227.841 387.227 228.497 387.746 228.497 388.56C228.497 389.462 227.807 389.981 227.055 389.981C226.398 389.981 225.776 389.688 225.653 389.1H224.245Z" fill="#1D1F20"/>
<circle cx="258" cy="323" r="4" fill="#8EAEFF"/>
<path opacity="0.4" d="M253.754 383.59C252.701 385.169 251.635 386.803 250.712 388.43V389.626H254.526V391H255.969V389.626H256.939V388.45H255.969V383.59H253.754ZM252.1 388.45V388.409C252.824 387.145 253.631 385.866 254.444 384.697H254.526V388.45H252.1ZM259.681 387.138C259.681 385.518 260.255 384.643 261.13 384.643C262.012 384.643 262.593 385.524 262.593 387.138V387.452C262.593 389.065 262.012 389.947 261.13 389.947C260.255 389.947 259.681 389.072 259.681 387.452V387.138ZM258.143 387.459C258.143 389.646 259.209 391.144 261.123 391.144C263.092 391.144 264.124 389.564 264.124 387.459V387.131C264.124 384.93 263.064 383.446 261.144 383.446C259.243 383.446 258.143 384.937 258.143 387.131V387.459Z" fill="#1D1F20"/>
<circle cx="292" cy="315" r="4" fill="#8EAEFF"/>
<path opacity="0.4" d="M287.877 383.59C286.824 385.169 285.758 386.803 284.835 388.43V389.626H288.649V391H290.092V389.626H291.062V388.45H290.092V383.59H287.877ZM286.223 388.45V388.409C286.947 387.145 287.754 385.866 288.567 384.697H288.649V388.45H286.223ZM292.361 389.1C292.409 390.262 293.503 391.144 295.144 391.144C296.9 391.144 298.104 390.104 298.104 388.519C298.104 386.974 296.935 386.105 295.574 386.105C294.686 386.105 294.146 386.502 293.981 386.741H293.913L294.084 384.766H297.666V383.583H292.854L292.525 387.91H293.865C294.036 387.616 294.46 387.227 295.171 387.227C295.957 387.227 296.613 387.746 296.613 388.56C296.613 389.462 295.923 389.981 295.171 389.981C294.515 389.981 293.893 389.688 293.77 389.1H292.361Z" fill="#1D1F20"/>
<circle cx="326" cy="304" r="4" fill="#8EAEFF"/>
<path opacity="0.4" d="M319.013 389.1C319.061 390.262 320.154 391.144 321.795 391.144C323.552 391.144 324.755 390.104 324.755 388.519C324.755 386.974 323.586 386.105 322.226 386.105C321.337 386.105 320.797 386.502 320.633 386.741H320.564L320.735 384.766H324.317V383.583H319.505L319.177 387.91H320.517C320.688 387.616 321.111 387.227 321.822 387.227C322.608 387.227 323.265 387.746 323.265 388.56C323.265 389.462 322.574 389.981 321.822 389.981C321.166 389.981 320.544 389.688 320.421 389.1H319.013ZM327.633 387.138C327.633 385.518 328.207 384.643 329.082 384.643C329.964 384.643 330.545 385.524 330.545 387.138V387.452C330.545 389.065 329.964 389.947 329.082 389.947C328.207 389.947 327.633 389.072 327.633 387.452V387.138ZM326.095 387.459C326.095 389.646 327.161 391.144 329.075 391.144C331.044 391.144 332.076 389.564 332.076 387.459V387.131C332.076 384.93 331.017 383.446 329.096 383.446C327.195 383.446 326.095 384.937 326.095 387.131V387.459Z" fill="#1D1F20"/>
<path opacity="0.4" d="M353.136 389.1C353.184 390.262 354.277 391.144 355.918 391.144C357.675 391.144 358.878 390.104 358.878 388.519C358.878 386.974 357.709 386.105 356.349 386.105C355.46 386.105 354.92 386.502 354.756 386.741H354.688L354.858 384.766H358.44V383.583H353.628L353.3 387.91H354.64C354.811 387.616 355.234 387.227 355.945 387.227C356.731 387.227 357.388 387.746 357.388 388.56C357.388 389.462 356.697 389.981 355.945 389.981C355.289 389.981 354.667 389.688 354.544 389.1H353.136ZM360.313 389.1C360.361 390.262 361.455 391.144 363.096 391.144C364.853 391.144 366.056 390.104 366.056 388.519C366.056 386.974 364.887 386.105 363.526 386.105C362.638 386.105 362.098 386.502 361.934 386.741H361.865L362.036 384.766H365.618V383.583H360.806L360.478 387.91H361.817C361.988 387.616 362.412 387.227 363.123 387.227C363.909 387.227 364.565 387.746 364.565 388.56C364.565 389.462 363.875 389.981 363.123 389.981C362.467 389.981 361.845 389.688 361.722 389.1H360.313Z" fill="#1D1F20"/>
<circle cx="394" cy="275" r="4" fill="#8EAEFF"/>
<path opacity="0.4" d="M392.632 385.306C392.577 384.444 391.688 383.46 389.986 383.46C388.079 383.46 386.835 384.766 386.835 387.486C386.835 388.573 387.061 389.366 387.423 389.934C387.997 390.809 388.913 391.144 389.897 391.144C391.565 391.144 392.796 390.193 392.796 388.546C392.796 386.98 391.559 386.181 390.314 386.181C389.241 386.181 388.64 386.7 388.4 387.206H388.312C388.277 385.661 388.927 384.615 389.966 384.615C390.677 384.615 391.053 384.978 391.162 385.306H392.632ZM388.489 388.607C388.489 387.821 389.07 387.268 389.904 387.268C390.656 387.268 391.306 387.726 391.306 388.607C391.306 389.523 390.697 389.988 389.904 389.988C389.118 389.988 388.489 389.469 388.489 388.607ZM395.715 387.138C395.715 385.518 396.289 384.643 397.164 384.643C398.046 384.643 398.627 385.524 398.627 387.138V387.452C398.627 389.065 398.046 389.947 397.164 389.947C396.289 389.947 395.715 389.072 395.715 387.452V387.138ZM394.177 387.459C394.177 389.646 395.243 391.144 397.157 391.144C399.126 391.144 400.158 389.564 400.158 387.459V387.131C400.158 384.93 399.099 383.446 397.178 383.446C395.277 383.446 394.177 384.937 394.177 387.131V387.459Z" fill="#1D1F20"/>
<circle cx="427" cy="256" r="4" fill="#8EAEFF"/>
<path opacity="0.4" d="M426.741 385.306C426.687 384.444 425.798 383.46 424.096 383.46C422.188 383.46 420.944 384.766 420.944 387.486C420.944 388.573 421.17 389.366 421.532 389.934C422.106 390.809 423.022 391.144 424.007 391.144C425.675 391.144 426.905 390.193 426.905 388.546C426.905 386.98 425.668 386.181 424.424 386.181C423.351 386.181 422.749 386.7 422.51 387.206H422.421C422.387 385.661 423.036 384.615 424.075 384.615C424.786 384.615 425.162 384.978 425.271 385.306H426.741ZM422.599 388.607C422.599 387.821 423.18 387.268 424.014 387.268C424.766 387.268 425.415 387.726 425.415 388.607C425.415 389.523 424.807 389.988 424.014 389.988C423.228 389.988 422.599 389.469 422.599 388.607ZM428.409 389.1C428.457 390.262 429.551 391.144 431.191 391.144C432.948 391.144 434.151 390.104 434.151 388.519C434.151 386.974 432.982 386.105 431.622 386.105C430.733 386.105 430.193 386.502 430.029 386.741H429.961L430.132 384.766H433.714V383.583H428.901L428.573 387.91H429.913C430.084 387.616 430.508 387.227 431.219 387.227C432.005 387.227 432.661 387.746 432.661 388.56C432.661 389.462 431.971 389.981 431.219 389.981C430.562 389.981 429.94 389.688 429.817 389.1H428.409Z" fill="#1D1F20"/>
<circle cx="461" cy="232" r="4" fill="#8EAEFF"/>
<path opacity="0.4" d="M454.677 383.59V384.779H458.546V384.848L455.265 391H456.885L460.091 384.813V383.59H454.677ZM462.777 387.138C462.777 385.518 463.352 384.643 464.227 384.643C465.108 384.643 465.689 385.524 465.689 387.138V387.452C465.689 389.065 465.108 389.947 464.227 389.947C463.352 389.947 462.777 389.072 462.777 387.452V387.138ZM461.239 387.459C461.239 389.646 462.306 391.144 464.22 391.144C466.188 391.144 467.221 389.564 467.221 387.459V387.131C467.221 384.93 466.161 383.446 464.24 383.446C462.34 383.446 461.239 384.937 461.239 387.131V387.459Z" fill="#1D1F20"/>
<circle cx="494" cy="200" r="4" fill="#8EAEFF"/>
<path opacity="0.4" d="M487.731 383.59V384.779H491.601V384.848L488.319 391H489.939L493.146 384.813V383.59H487.731ZM494.526 389.1C494.574 390.262 495.668 391.144 497.309 391.144C499.065 391.144 500.269 390.104 500.269 388.519C500.269 386.974 499.1 386.105 497.739 386.105C496.851 386.105 496.311 386.502 496.146 386.741H496.078L496.249 384.766H499.831V383.583H495.019L494.69 387.91H496.03C496.201 387.616 496.625 387.227 497.336 387.227C498.122 387.227 498.778 387.746 498.778 388.56C498.778 389.462 498.088 389.981 497.336 389.981C496.68 389.981 496.058 389.688 495.935 389.1H494.526Z" fill="#1D1F20"/>
<circle cx="528" cy="153" r="4" fill="#8EAEFF"/>
<path opacity="0.4" d="M523.788 390.084C522.927 390.084 522.271 389.592 522.271 388.867C522.271 388.136 522.927 387.637 523.788 387.637C524.649 387.637 525.306 388.136 525.306 388.867C525.306 389.592 524.649 390.084 523.788 390.084ZM523.788 386.639C523.063 386.639 522.53 386.201 522.53 385.572C522.53 384.943 523.063 384.52 523.788 384.52C524.513 384.52 525.046 384.943 525.046 385.572C525.046 386.201 524.513 386.639 523.788 386.639ZM523.768 391.144C525.613 391.144 526.823 390.248 526.823 388.963C526.823 387.794 525.894 387.261 525.176 387.117V387.056C525.825 386.871 526.516 386.379 526.516 385.408C526.516 384.28 525.429 383.446 523.788 383.446C522.147 383.446 521.054 384.28 521.054 385.408C521.054 386.365 521.724 386.864 522.394 387.056V387.117C521.683 387.261 520.746 387.787 520.746 388.97C520.746 390.255 521.929 391.144 523.768 391.144ZM529.756 387.138C529.756 385.518 530.33 384.643 531.205 384.643C532.087 384.643 532.668 385.524 532.668 387.138V387.452C532.668 389.065 532.087 389.947 531.205 389.947C530.33 389.947 529.756 389.072 529.756 387.452V387.138ZM528.218 387.459C528.218 389.646 529.284 391.144 531.198 391.144C533.167 391.144 534.199 389.564 534.199 387.459V387.131C534.199 384.93 533.14 383.446 531.219 383.446C529.318 383.446 528.218 384.937 528.218 387.131V387.459Z" fill="#1D1F20"/>
<circle cx="561" cy="68" r="4" fill="#8EAEFF"/>
<path opacity="0.4" d="M557.911 390.084C557.05 390.084 556.394 389.592 556.394 388.867C556.394 388.136 557.05 387.637 557.911 387.637C558.772 387.637 559.429 388.136 559.429 388.867C559.429 389.592 558.772 390.084 557.911 390.084ZM557.911 386.639C557.187 386.639 556.653 386.201 556.653 385.572C556.653 384.943 557.187 384.52 557.911 384.52C558.636 384.52 559.169 384.943 559.169 385.572C559.169 386.201 558.636 386.639 557.911 386.639ZM557.891 391.144C559.736 391.144 560.946 390.248 560.946 388.963C560.946 387.794 560.017 387.261 559.299 387.117V387.056C559.948 386.871 560.639 386.379 560.639 385.408C560.639 384.28 559.552 383.446 557.911 383.446C556.271 383.446 555.177 384.28 555.177 385.408C555.177 386.365 555.847 386.864 556.517 387.056V387.117C555.806 387.261 554.869 387.787 554.869 388.97C554.869 390.255 556.052 391.144 557.891 391.144ZM562.437 389.1C562.484 390.262 563.578 391.144 565.219 391.144C566.976 391.144 568.179 390.104 568.179 388.519C568.179 386.974 567.01 386.105 565.649 386.105C564.761 386.105 564.221 386.502 564.057 386.741H563.988L564.159 384.766H567.741V383.583H562.929L562.601 387.91H563.94C564.111 387.616 564.535 387.227 565.246 387.227C566.032 387.227 566.688 387.746 566.688 388.56C566.688 389.462 565.998 389.981 565.246 389.981C564.59 389.981 563.968 389.688 563.845 389.1H562.437Z" fill="#1D1F20"/>
<g opacity="0.7" filter="url(#filter0_d)">
<path d="M39.1388 55.784C40.7868 55.784 42.1308 56.216 43.1708 57.08C44.2268 57.928 44.7548 59.144 44.7548 60.728C44.7548 62.36 44.1468 63.632 42.9308 64.544C41.7148 65.456 40.0748 65.912 38.0108 65.912C36.7308 65.912 35.5468 65.712 34.4588 65.312C33.3868 64.928 32.5228 64.368 31.8668 63.632C31.2268 62.896 30.8828 62.032 30.8348 61.04H33.8108C33.8908 61.76 34.3148 62.32 35.0828 62.72C35.8668 63.136 36.8028 63.344 37.8908 63.344C38.9308 63.344 39.8108 63.12 40.5308 62.672C41.2668 62.224 41.6348 61.568 41.6348 60.704C41.6348 59.824 41.2828 59.16 40.5788 58.712C39.8748 58.248 39.0028 58.016 37.9628 58.016C37.1148 58.016 36.3308 58.136 35.6108 58.376C34.8908 58.616 34.3548 59 34.0028 59.528L31.2908 59.024L32.0108 50H43.1228V52.664H34.9148L34.5068 57.608C34.9708 57.032 35.6188 56.584 36.4508 56.264C37.2828 55.944 38.1788 55.784 39.1388 55.784ZM57.4405 51.776C58.6885 51.776 59.7845 51.992 60.7285 52.424C61.6725 52.84 62.4005 53.44 62.9125 54.224C63.4405 55.008 63.7045 55.92 63.7045 56.96C63.7045 58.032 63.4165 58.976 62.8405 59.792C62.2645 60.592 61.4325 61.216 60.3445 61.664C59.2565 62.096 57.9685 62.312 56.4805 62.312C54.0805 62.312 52.1765 61.864 50.7685 60.968C49.3765 60.072 48.6805 58.816 48.6805 57.2C48.6805 56.24 48.9605 55.312 49.5205 54.416C49.7605 54.016 51.6005 51.368 55.0405 46.472H58.9765L53.6245 53.072C54.7605 52.208 56.0325 51.776 57.4405 51.776ZM60.5125 56.936C60.5125 56.088 60.1365 55.416 59.3845 54.92C58.6325 54.424 57.6405 54.176 56.4085 54.176C55.0325 54.176 53.9285 54.448 53.0965 54.992C52.2805 55.52 51.8725 56.2 51.8725 57.032C51.8725 57.896 52.2805 58.568 53.0965 59.048C53.9125 59.528 54.9845 59.768 56.3125 59.768C57.5765 59.768 58.5925 59.52 59.3605 59.024C60.1285 58.528 60.5125 57.832 60.5125 56.936ZM76.6034 52.496H73.5314V62H70.4114V52.496H67.3394V50.072H70.4114V46.808H73.5314V50.072H76.6034V52.496ZM89.6256 49.808C91.1616 49.808 92.4016 50.2 93.3456 50.984C94.2896 51.752 94.7616 52.88 94.7616 54.368V62H91.6416V55.448C91.6416 54.456 91.3776 53.72 90.8496 53.24C90.3216 52.744 89.4656 52.496 88.2816 52.496C87.3056 52.496 86.4256 52.736 85.6416 53.216C84.8576 53.696 84.3376 54.272 84.0816 54.944V62H80.9616V45.272H84.0816V53.504C84.4176 52.48 85.0736 51.608 86.0496 50.888C87.0256 50.168 88.2176 49.808 89.6256 49.808ZM116.107 52.496H113.035V62H109.915V52.496H106.843V50.072H109.915V46.808H113.035V50.072H116.107V52.496ZM127.117 62.288C124.813 62.288 122.965 61.744 121.573 60.656C120.197 59.568 119.509 58.04 119.509 56.072C119.509 54.76 119.821 53.632 120.445 52.688C121.085 51.744 121.973 51.032 123.109 50.552C124.261 50.056 125.597 49.808 127.117 49.808C128.621 49.808 129.941 50.056 131.077 50.552C132.213 51.032 133.093 51.744 133.717 52.688C134.357 53.632 134.677 54.76 134.677 56.072C134.677 58.04 133.989 59.568 132.613 60.656C131.237 61.744 129.405 62.288 127.117 62.288ZM127.117 59.888C128.397 59.888 129.445 59.552 130.261 58.88C131.093 58.192 131.509 57.256 131.509 56.072C131.509 54.872 131.101 53.928 130.285 53.24C129.469 52.536 128.413 52.184 127.117 52.184C125.821 52.184 124.757 52.536 123.925 53.24C123.093 53.928 122.677 54.872 122.677 56.072C122.677 57.272 123.085 58.208 123.901 58.88C124.733 59.552 125.805 59.888 127.117 59.888ZM139.359 45.272H142.479V62H139.359V45.272ZM153.087 62H149.127L142.551 55.304L148.287 50.072H152.535L146.487 55.4L153.087 62ZM170.082 58.04C169.874 59.32 169.186 60.352 168.018 61.136C166.866 61.904 165.314 62.288 163.362 62.288C161.826 62.288 160.474 62.04 159.306 61.544C158.138 61.048 157.226 60.336 156.57 59.408C155.93 58.48 155.61 57.368 155.61 56.072C155.61 54.776 155.922 53.656 156.546 52.712C157.186 51.768 158.082 51.048 159.234 50.552C160.386 50.056 161.73 49.808 163.266 49.808C168.05 49.808 170.338 52.08 170.13 56.624H158.754C158.882 57.584 159.338 58.368 160.122 58.976C160.922 59.584 161.978 59.888 163.29 59.888C164.25 59.888 165.066 59.72 165.738 59.384C166.426 59.032 166.866 58.584 167.058 58.04H170.082ZM163.122 52.184C162.018 52.184 161.09 52.432 160.338 52.928C159.602 53.408 159.13 54.032 158.922 54.8H167.034C166.954 54 166.57 53.368 165.882 52.904C165.194 52.424 164.274 52.184 163.122 52.184ZM183.276 49.808C184.812 49.808 186.052 50.224 186.996 51.056C187.94 51.872 188.412 53.088 188.412 54.704V62H185.292V55.256C185.292 54.248 185.044 53.512 184.548 53.048C184.068 52.568 183.276 52.328 182.172 52.328C181.132 52.328 180.196 52.584 179.364 53.096C178.548 53.608 178.004 54.216 177.732 54.92V62H174.612V50.072H177.732V53.504C178.068 52.464 178.724 51.592 179.7 50.888C180.676 50.168 181.868 49.808 183.276 49.808ZM208.562 47.792C207.81 47.776 207.25 47.92 206.882 48.224C206.514 48.512 206.33 49.04 206.33 49.808V50.288H210.122V52.664H206.33V62H203.21V52.664H200.522V50.288H203.21V49.424C203.21 48 203.594 46.952 204.362 46.28C205.146 45.608 206.298 45.272 207.818 45.272H210.29V47.792H208.562ZM221.1 62.288C218.796 62.288 216.948 61.744 215.556 60.656C214.18 59.568 213.492 58.04 213.492 56.072C213.492 54.76 213.804 53.632 214.428 52.688C215.068 51.744 215.956 51.032 217.092 50.552C218.244 50.056 219.58 49.808 221.1 49.808C222.604 49.808 223.924 50.056 225.06 50.552C226.196 51.032 227.076 51.744 227.7 52.688C228.34 53.632 228.66 54.76 228.66 56.072C228.66 58.04 227.972 59.568 226.596 60.656C225.22 61.744 223.388 62.288 221.1 62.288ZM221.1 59.888C222.38 59.888 223.428 59.552 224.244 58.88C225.076 58.192 225.492 57.256 225.492 56.072C225.492 54.872 225.084 53.928 224.268 53.24C223.452 52.536 222.396 52.184 221.1 52.184C219.804 52.184 218.74 52.536 217.908 53.24C217.076 53.928 216.66 54.872 216.66 56.072C216.66 57.272 217.068 58.208 217.884 58.88C218.716 59.552 219.788 59.888 221.1 59.888ZM236.247 53.648C236.551 52.672 237.079 51.792 237.831 51.008C238.583 50.208 239.583 49.808 240.831 49.808V52.64C239.567 52.64 238.567 52.944 237.831 53.552C237.111 54.16 236.583 54.808 236.247 55.496V62H233.127V50.072H236.247V53.648ZM255.269 58.04C255.445 58.6 255.813 59.048 256.373 59.384C256.933 59.72 257.653 59.888 258.533 59.888C259.397 59.888 259.997 59.776 260.333 59.552C260.669 59.312 260.837 58.96 260.837 58.496C260.837 58.032 260.629 57.704 260.213 57.512C259.797 57.32 259.029 57.136 257.909 56.96C256.261 56.688 254.989 56.304 254.093 55.808C253.197 55.296 252.749 54.496 252.749 53.408C252.749 52.288 253.269 51.408 254.309 50.768C255.349 50.128 256.685 49.808 258.317 49.808C260.045 49.808 261.357 50.176 262.253 50.912C263.149 51.648 263.605 52.64 263.621 53.888H260.861C260.733 53.296 260.469 52.872 260.069 52.616C259.685 52.344 259.101 52.208 258.317 52.208C257.549 52.208 256.957 52.328 256.541 52.568C256.141 52.792 255.941 53.12 255.941 53.552C255.941 53.872 256.053 54.128 256.277 54.32C256.517 54.512 256.853 54.664 257.285 54.776C257.733 54.872 258.389 54.992 259.253 55.136C260.325 55.36 261.173 55.584 261.797 55.808C262.437 56.032 262.965 56.376 263.381 56.84C263.813 57.304 264.029 57.928 264.029 58.712C264.029 59.848 263.541 60.728 262.565 61.352C261.605 61.976 260.269 62.288 258.557 62.288C257.021 62.288 255.781 62.032 254.837 61.52C253.893 61.008 253.229 60.416 252.845 59.744C252.477 59.072 252.325 58.504 252.389 58.04H255.269ZM283.096 50.072V62H280.192C280.048 60.848 279.976 59.824 279.976 58.928V58.184C279.608 59.384 278.952 60.368 278.008 61.136C277.08 61.888 275.872 62.264 274.384 62.264C273.2 62.264 272.12 62.008 271.144 61.496C270.184 60.968 269.416 60.232 268.84 59.288C268.28 58.344 268 57.264 268 56.048C268 54.816 268.28 53.728 268.84 52.784C269.416 51.84 270.2 51.112 271.192 50.6C272.2 50.072 273.32 49.808 274.552 49.808C276.024 49.808 277.208 50.144 278.104 50.816C279.016 51.488 279.64 52.416 279.976 53.6V50.072H283.096ZM275.392 59.864C276.8 59.864 277.912 59.52 278.728 58.832C279.56 58.128 279.976 57.2 279.976 56.048C279.976 54.832 279.568 53.896 278.752 53.24C277.936 52.568 276.816 52.232 275.392 52.232C274.08 52.232 273.048 52.576 272.296 53.264C271.56 53.952 271.192 54.88 271.192 56.048C271.192 57.2 271.576 58.128 272.344 58.832C273.112 59.52 274.128 59.864 275.392 59.864ZM291.416 45.272V62H288.296V45.272H291.416ZM310.628 58.04C310.42 59.32 309.732 60.352 308.564 61.136C307.412 61.904 305.86 62.288 303.908 62.288C302.372 62.288 301.02 62.04 299.852 61.544C298.684 61.048 297.772 60.336 297.116 59.408C296.476 58.48 296.156 57.368 296.156 56.072C296.156 54.776 296.468 53.656 297.092 52.712C297.732 51.768 298.628 51.048 299.78 50.552C300.932 50.056 302.276 49.808 303.812 49.808C308.596 49.808 310.884 52.08 310.676 56.624H299.3C299.428 57.584 299.884 58.368 300.668 58.976C301.468 59.584 302.524 59.888 303.836 59.888C304.796 59.888 305.612 59.72 306.284 59.384C306.972 59.032 307.412 58.584 307.604 58.04H310.628ZM303.668 52.184C302.564 52.184 301.636 52.432 300.884 52.928C300.148 53.408 299.676 54.032 299.468 54.8H307.58C307.5 54 307.116 53.368 306.428 52.904C305.74 52.424 304.82 52.184 303.668 52.184Z" fill="#1D1F20"/>
</g>
<defs>
<filter id="filter0_d" x="26.835" y="45.272" width="287.854" height="28.64" filterUnits="userSpaceOnUse" color-interpolation-filters="sRGB">
<feFlood flood-opacity="0" result="BackgroundImageFix"/>
<feColorMatrix in="SourceAlpha" type="matrix" values="0 0 0 0 0 0 0 0 0 0 0 0 0 0 0 0 0 0 127 0"/>
<feOffset dy="4"/>
<feGaussianBlur stdDeviation="2"/>
<feColorMatrix type="matrix" values="0 0 0 0 0 0 0 0 0 0 0 0 0 0 0 0 0 0 0.25 0"/>
<feBlend mode="normal" in2="BackgroundImageFix" result="effect1_dropShadow"/>
<feBlend mode="normal" in="SourceGraphic" in2="effect1_dropShadow" result="shape"/>
</filter>
</defs>
</svg>
