<svg width="105" height="30" viewBox="0 0 105 30" fill="none" xmlns="http://www.w3.org/2000/svg">
<rect width="105" height="30" rx="15" fill="#0C3294" fill-opacity="0.1"/>
<path opacity="0.6" d="M17.3711 19.2051C19.2168 19.2051 20.4473 18.0635 20.4473 16.4023C20.4473 14.8711 19.374 13.7773 17.8496 13.7773C17.0566 13.7773 16.4893 14.0713 16.1611 14.5498H16.0586L16.2295 12.5742H19.9619V11.1797H14.9102L14.5137 15.7256H16.0381C16.3115 15.2949 16.7764 15.0352 17.3916 15.0352C18.2324 15.0352 18.8203 15.5957 18.8203 16.4434C18.8203 17.2705 18.2393 17.8242 17.3848 17.8242C16.6328 17.8242 16.0518 17.4072 15.9629 16.7715H14.3906C14.4385 18.166 15.6279 19.2051 17.3711 19.2051ZM25.3828 19.2051C27.2285 19.2051 28.459 18.0635 28.459 16.4023C28.459 14.8711 27.3857 13.7773 25.8613 13.7773C25.0684 13.7773 24.501 14.0713 24.1729 14.5498H24.0703L24.2412 12.5742H27.9736V11.1797H22.9219L22.5254 15.7256H24.0498C24.3232 15.2949 24.7881 15.0352 25.4033 15.0352C26.2441 15.0352 26.832 15.5957 26.832 16.4434C26.832 17.2705 26.251 17.8242 25.3965 17.8242C24.6445 17.8242 24.0635 17.4072 23.9746 16.7715H22.4023C22.4502 18.166 23.6396 19.2051 25.3828 19.2051ZM34.1602 19V12.6152H36.5527V11.1797H30.0654V12.6152H32.458V19H34.1602ZM45.4668 19V11.1797H43.7646V14.3174H40.2031V11.1797H38.4941V19H40.2031V15.7529H43.7646V19H45.4668ZM55.2422 19V12.6152H57.6348V11.1797H51.1475V12.6152H53.54V19H55.2422ZM62.7412 10.9746C60.3828 10.9746 58.8789 12.5469 58.8789 15.0898C58.8789 17.626 60.3555 19.2051 62.7412 19.2051C65.0996 19.2051 66.583 17.626 66.583 15.0898C66.583 12.5537 65.0996 10.9746 62.7412 10.9746ZM62.7412 12.458C64.0195 12.458 64.8398 13.4766 64.8398 15.0898C64.8398 16.6963 64.0195 17.7217 62.7412 17.7217C61.4355 17.7217 60.6221 16.6963 60.6221 15.0898C60.6221 13.4766 61.4561 12.458 62.7412 12.458ZM70.3359 19V16.6758L71.1152 15.7666L73.4053 19H75.4492L72.3525 14.6182L75.251 11.1797H73.3574L70.4316 14.6387H70.3359V11.1797H68.627V19H70.3359ZM82.4834 17.5645H78.8809V15.7188H82.2852V14.3857H78.8809V12.6152H82.4834V11.1797H77.1719V19H82.4834V17.5645ZM86.332 19V14.2012H86.4414L90.0918 19H91.5V11.1797H89.8662V15.9512H89.7705L86.127 11.1797H84.7051V19H86.332Z" fill="#0C3294"/>
</svg>
