<svg width="14" height="14" viewBox="0 0 14 14" fill="none" xmlns="http://www.w3.org/2000/svg">
<path fill-rule="evenodd" clip-rule="evenodd" d="M6.79498 13.4659L5.80064 13.9113C5.3682 14.105 4.85919 13.9686 4.58154 13.5846L3.9431 12.7017C3.8596 12.5863 3.73082 12.5119 3.58909 12.4974L2.50528 12.3859C2.03393 12.3374 1.66131 11.9648 1.61284 11.4935L1.50137 10.4096C1.48679 10.2679 1.41244 10.1391 1.29698 10.0556L0.414107 9.41719C0.0301489 9.13953 -0.106239 8.63053 0.0874505 8.19809L0.53282 7.20375C0.591062 7.07372 0.591062 6.92501 0.53282 6.79498L0.0874505 5.80063C-0.106239 5.3682 0.0301489 4.85919 0.414107 4.58154L1.29698 3.94309C1.41244 3.8596 1.48679 3.73082 1.50137 3.58909L1.61284 2.50528C1.66131 2.03393 2.03393 1.66131 2.50528 1.61283L3.58909 1.50136C3.73082 1.48679 3.8596 1.41243 3.9431 1.29698L4.58154 0.414107C4.85919 0.0301489 5.3682 -0.106239 5.80064 0.0874505L6.79498 0.532816C6.92501 0.591059 7.07372 0.591059 7.20375 0.532816L8.19809 0.0874505C8.63053 -0.106239 9.13954 0.0301489 9.41719 0.414107L10.0556 1.29698C10.1391 1.41243 10.2679 1.48679 10.4096 1.50136L11.4935 1.61283C11.9648 1.66131 12.3374 2.03393 12.3859 2.50528L12.4974 3.58909C12.5119 3.73082 12.5863 3.8596 12.7017 3.94309L13.5846 4.58154C13.9686 4.85919 14.105 5.3682 13.9113 5.80063L13.4659 6.79498C13.4077 6.92501 13.4077 7.07372 13.4659 7.20375L13.9113 8.19809C14.105 8.63053 13.9686 9.13953 13.5846 9.41719L12.7017 10.0556C12.5863 10.1391 12.5119 10.2679 12.4974 10.4096L12.3859 11.4935C12.3374 11.9648 11.9648 12.3374 11.4935 12.3859L10.4096 12.4974C10.2679 12.5119 10.1391 12.5863 10.0556 12.7017L9.41719 13.5846C9.13954 13.9686 8.63053 14.105 8.19809 13.9113L7.20375 13.4659C7.07372 13.4077 6.92501 13.4077 6.79498 13.4659ZM4.29789 6.05353L3.44936 6.90206L6.29789 9.75059L10.6706 5.37792L9.82203 4.52939L6.29789 8.05353L4.29789 6.05353Z" fill="#0C3294"/>
</svg>
